<svg width="12" height="21" viewBox="0 0 12 21" fill="none" xmlns="http://www.w3.org/2000/svg">
    <path
        d="M11.112 0.901779C11.312 0.905687 11.5025 0.988331 11.642 1.13178C11.7824 1.2724 11.8613 1.46303 11.8613 1.66178C11.8613 1.86053 11.7824 2.05116 11.642 2.19178L2.46197 10.9018L11.642 19.6118C11.7362 19.6699 11.8164 19.7483 11.8768 19.8411C11.9372 19.9339 11.9762 20.039 11.9912 20.1487C12.0061 20.2585 11.9966 20.3702 11.9633 20.4758C11.9299 20.5814 11.8736 20.6783 11.7984 20.7596C11.7231 20.8408 11.6308 20.9044 11.5281 20.9458C11.4253 20.9871 11.3147 21.0052 11.2042 20.9987C11.0936 20.9922 10.9859 20.9614 10.8887 20.9083C10.7914 20.8552 10.7072 20.7813 10.642 20.6918L0.90197 11.4418C0.829383 11.3718 0.771646 11.2879 0.732211 11.1952C0.692776 11.1024 0.67245 11.0026 0.67245 10.9018C0.67245 10.801 0.692776 10.7012 0.732211 10.6084C0.771646 10.5156 0.829383 10.4317 0.90197 10.3618L10.592 1.11178C10.7316 0.977169 10.918 0.901903 11.112 0.901779Z"
        fill="#00253E" />
</svg>