<svg width="20" height="20" viewBox="0 0 20 20" fill="none" xmlns="http://www.w3.org/2000/svg">
    <path
        d="M19.7729 18.72L15.8999 14.846C17.2349 13.273 18.0459 11.24 18.0459 9.02C18.0459 4.046 13.9999 0 9.02586 0C4.05186 0 0.00585938 4.046 0.00585938 9.02C0.00585938 13.994 4.05186 18.041 9.02586 18.041C11.2399 18.041 13.2679 17.236 14.8389 15.907L18.7129 19.781C18.8589 19.927 19.0509 20.001 19.2429 20.001C19.4349 20.001 19.6269 19.928 19.7729 19.781C20.0659 19.487 20.0659 19.013 19.7729 18.72ZM1.50686 9.02C1.50686 4.874 4.87986 1.5 9.02686 1.5C13.1739 1.5 16.5469 4.873 16.5469 9.02C16.5469 11.09 15.7059 12.967 14.3489 14.328C14.3439 14.332 14.3379 14.334 14.3329 14.338C14.3289 14.342 14.3279 14.347 14.3249 14.351C12.9649 15.703 11.0929 16.54 9.02786 16.54C4.87986 16.54 1.50686 13.166 1.50686 9.02Z"
        fill="#6b6b6b" />
</svg>