<svg width="20" height="20" viewBox="0 0 20 20" fill="none" xmlns="http://www.w3.org/2000/svg">
<path d="M19.8441 7.594C19.7011 7.41 19.4831 7.302 19.2501 7.302H14.6451V4.645C14.6451 2.083 12.5611 0 10.0001 0C7.43905 0 5.35505 2.083 5.35505 4.645V7.303H0.750054C0.518054 7.303 0.299054 7.41 0.156054 7.595C0.0140535 7.779 -0.0339465 8.018 0.0240535 8.243L2.94505 19.44C3.03105 19.77 3.33005 20 3.67105 20H16.3291C16.6701 20 16.9691 19.77 17.0551 19.439L19.9761 8.242C20.0341 8.017 19.9851 7.778 19.8441 7.594ZM6.85505 4.645C6.85505 2.911 8.26605 1.5 10.0001 1.5C11.7341 1.5 13.1451 2.911 13.1451 4.645V7.303H6.85505V4.645ZM15.7501 18.5H4.25005L1.72105 8.803H5.35605V10C5.35605 10.414 5.69205 10.75 6.10605 10.75C6.52005 10.75 6.85605 10.414 6.85605 10V8.803H13.1451V10C13.1451 10.414 13.4811 10.75 13.8951 10.75C14.3091 10.75 14.6451 10.414 14.6451 10V8.803H18.2801L15.7501 18.5Z" fill="#00253E"/>
</svg>
